<?xml version="1.0" encoding="utf-8"?>
<!-- Generator: Adobe Illustrator 21.1.0, SVG Export Plug-In . SVG Version: 6.00 Build 0)  -->
<svg version="1.1" id="Layer_1" xmlns="http://www.w3.org/2000/svg" xmlns:xlink="http://www.w3.org/1999/xlink" x="0px" y="0px"
	 viewBox="0 0 150 150" style="enable-background:new 0 0 150 150;" xml:space="preserve">
<style type="text/css">
	.st0{fill:#948959;}
</style>
<g>
	<g>
		<path class="st0" d="M86,56.5c5.8-5.3,12.7-8.1,20.5-8.7c-9.3-4.1-19.1-5.9-29.2-6.1c-11.5-0.2-22.6,1.5-33.3,5.9
			c8,0.5,15,3.3,20.9,8.6c5.9,5.4,9.3,12,10.6,19.9C76.8,68.5,80.2,61.8,86,56.5z"/>
		<path class="st0" d="M108.3,69.8c-5.9,0-10.6,4.7-10.7,10.5c0,5.8,4.8,10.6,10.6,10.6c5.8,0,10.6-4.8,10.6-10.6
			C118.8,74.5,114.1,69.8,108.3,69.8z M108.3,85.8c-3,0-5.4-2.4-5.4-5.3c0-3.1,2.4-5.4,5.4-5.4c3,0,5.4,2.4,5.4,5.4
			C113.6,83.4,111.2,85.8,108.3,85.8z"/>
		<path class="st0" d="M42.8,54.5c-14.1-0.1-26.4,11.6-26.1,26.6c0.2,14,11.7,25.8,26.4,25.7C57.4,106.7,69,95,69,80.8
			C69,66.2,57.3,54.5,42.8,54.5z M43.2,96.6c-9.4,0.4-17.1-7.1-17-16.2c0-9.3,7.6-16.3,16.3-16.2c9,0,16.2,7.2,16.2,16.2
			C58.6,89.4,51.5,96.2,43.2,96.6z"/>
		<path class="st0" d="M42.3,69.8c-5.7,0-10.5,4.8-10.5,10.6c0,5.8,4.8,10.6,10.6,10.6C48.2,91,53,86.2,53,80.4
			C53,74.5,48.2,69.8,42.3,69.8z M42.4,85.8c-3.1,0-5.4-2.4-5.4-5.5c0-3,2.4-5.4,5.4-5.4c3,0,5.4,2.4,5.5,5.4
			C47.9,83.4,45.4,85.8,42.4,85.8z"/>
		<path class="st0" d="M107.7,54.6c-14.3,0.3-25.5,11.8-25.6,26.1c0,14.5,11.8,26.3,26.2,26.3c14.5-0.1,26.2-11.6,26.2-26.2
			C134.4,65.7,122.2,54.3,107.7,54.6z M108.9,96.6C99.5,97,91.9,89.5,92,80.4c0-9.2,7.6-16.4,16.3-16.2c9,0,16.2,7.2,16.2,16.2
			C124.4,89.3,117.3,96.3,108.9,96.6z"/>
		<path class="st0" d="M144.7-3.6H5.4c-4.6,0-8.3,3.7-8.3,8.3v140.2c0,4.6,3.7,8.3,8.3,8.3h139.3c4.6,0,8.3-3.7,8.3-8.3V4.7
			C153,0.1,149.3-3.6,144.7-3.6z M139.2,88.7c-2.1,8.6-7,15.2-14.4,19.9c-5.3,3.4-11.1,5-17.4,5c-2.6,0-5.2-0.3-7.8-1
			c-6.2-1.6-11.6-4.8-16-9.5c-0.6-0.6-1.1-1.3-1.8-2c-2.3,3.5-4.6,6.9-7,10.5c-2.3-3.5-4.6-6.9-6.9-10.3c-0.2,0.1-0.2,0.1-0.2,0.1
			c0,0-0.1,0.1-0.1,0.1c-5.3,6.3-12.1,10.2-20.2,11.5c-4.6,0.7-9.1,0.5-13.5-0.8c-6.3-1.7-11.6-5.1-15.9-10
			c-4.2-4.8-6.8-10.4-7.8-16.7c-1.1-5.9,0.2-11.6,0.6-13c1-4,2.7-7.7,5.1-11.1c0.2-0.2,0.2-0.7,0.1-1c-1-3.6-2.6-6.8-4.6-9.9
			c-0.5-0.8-1.1-1.5-1.6-2.3c0-0.1,0-0.2,0-0.3c0.1,0,0.2,0,0.3,0c6.6,0,13.1,0,19.7,0c0.3,0,0.6-0.1,0.8-0.3
			c4.6-3,9.5-5.3,14.7-7.2c3.7-1.3,7.5-2.3,11.4-3.1c3.7-0.7,7.5-1.2,11.3-1.5c9.3-0.7,16.7,0.3,21.6,1c3.6,0.5,7.2,1.4,10.7,2.5
			c6.1,1.9,11.9,4.6,17.4,8c0.4,0.2,0.9,0.4,1.3,0.4c6.4,0,12.8,0,19.2,0c0.5,0,1,0.1,1.5,0.1c0,0.1,0,0.2,0,0.2
			c-0.3,0.5-0.6,0.9-0.9,1.4c-2.2,3.4-4,6.9-5.1,10.7c-0.1,0.4-0.1,0.8,0.1,1.2C139.8,69.9,141.6,78.9,139.2,88.7z"/>
	</g>
</g>
</svg>
