<?xml version="1.0" encoding="utf-8"?>
<!-- Generator: Adobe Illustrator 21.1.0, SVG Export Plug-In . SVG Version: 6.00 Build 0)  -->
<svg version="1.1" id="Layer_1" xmlns="http://www.w3.org/2000/svg" xmlns:xlink="http://www.w3.org/1999/xlink" x="0px" y="0px"
	 viewBox="0 0 406 415.5" style="enable-background:new 0 0 406 415.5;" xml:space="preserve">
<style type="text/css">
	.st0{fill:#E6D284;}
</style>
<g>
	<path class="st0" d="M147.7,228.5c0-5.1-4.2-9.3-9.3-9.3H106c-5.1,0-9.3,4.2-9.3,9.3v32.4c0,5.1,4.2,9.3,9.3,9.3h32.4
		c5.1,0,9.3-4.2,9.3-9.3V228.5z M147.7,228.5"/>
	<path class="st0" d="M228.8,228.5c0-5.1-4.2-9.3-9.3-9.3H187c-5.1,0-9.3,4.2-9.3,9.3v32.4c0,5.1,4.2,9.3,9.3,9.3h32.4
		c5.1,0,9.3-4.2,9.3-9.3V228.5z M228.8,228.5"/>
	<path class="st0" d="M309.9,228.5c0-5.1-4.2-9.3-9.3-9.3h-32.4c-5.1,0-9.3,4.2-9.3,9.3v32.4c0,5.1,4.2,9.3,9.3,9.3h32.4
		c5.1,0,9.3-4.2,9.3-9.3V228.5z M309.9,228.5"/>
	<path class="st0" d="M147.7,309.6c0-5.1-4.2-9.3-9.3-9.3H106c-5.1,0-9.3,4.2-9.3,9.3V342c0,5.1,4.2,9.3,9.3,9.3h32.4
		c5.1,0,9.3-4.2,9.3-9.3V309.6z M147.7,309.6"/>
	<path class="st0" d="M228.8,309.6c0-5.1-4.2-9.3-9.3-9.3H187c-5.1,0-9.3,4.2-9.3,9.3V342c0,5.1,4.2,9.3,9.3,9.3h32.4
		c5.1,0,9.3-4.2,9.3-9.3V309.6z M228.8,309.6"/>
	<path class="st0" d="M309.9,309.6c0-5.1-4.2-9.3-9.3-9.3h-32.4c-5.1,0-9.3,4.2-9.3,9.3V342c0,5.1,4.2,9.3,9.3,9.3h32.4
		c5.1,0,9.3-4.2,9.3-9.3V309.6z M309.9,309.6"/>
	<path class="st0" d="M367.9,48.1v49.5c0,22.4-18.2,40.4-40.6,40.4h-25.6c-22.4,0-40.8-18-40.8-40.4V47.9H145.6v49.7
		c0,22.4-18.4,40.4-40.8,40.4H79.2c-22.4,0-40.6-18-40.6-40.4V48.1C19.1,48.7,3,64.9,3,84.8v290.4c0,20.3,16.4,36.9,36.7,36.9h327.1
		c20.3,0,36.7-16.7,36.7-36.9V84.8C403.5,64.9,387.4,48.7,367.9,48.1L367.9,48.1z M356,357.1c0,8.8-7.1,15.9-15.9,15.9H65.7
		c-8.8,0-15.9-7.1-15.9-15.9v-150c0-8.8,7.1-15.9,15.9-15.9h274.4c8.8,0,15.9,7.1,15.9,15.9V357.1z M356,357.1"/>
	<path class="st0" d="M79.1,111.5h25.3c7.7,0,13.9-6.2,13.9-13.9V16.4c0-7.7-6.2-13.9-13.9-13.9H79.1c-7.7,0-13.9,6.2-13.9,13.9
		v81.2C65.2,105.3,71.4,111.5,79.1,111.5L79.1,111.5z M79.1,111.5"/>
	<path class="st0" d="M301.4,111.5h25.3c7.7,0,13.9-6.2,13.9-13.9V16.4c0-7.7-6.2-13.9-13.9-13.9h-25.3c-7.7,0-13.9,6.2-13.9,13.9
		v81.2C287.5,105.3,293.7,111.5,301.4,111.5L301.4,111.5z M301.4,111.5"/>
</g>
</svg>
