<?xml version="1.0" encoding="utf-8"?>
<!-- Generator: Adobe Illustrator 21.1.0, SVG Export Plug-In . SVG Version: 6.00 Build 0)  -->
<svg version="1.1" id="Layer_1" xmlns="http://www.w3.org/2000/svg" xmlns:xlink="http://www.w3.org/1999/xlink" x="0px" y="0px"
	 viewBox="0 0 150 150" style="enable-background:new 0 0 150 150;" xml:space="preserve">
<style type="text/css">
	.st0{fill:#948959;}
</style>
<path class="st0" d="M0,0v150h150V0H0z M116.3,53.8c0,0.9,0.1,1.8,0.1,2.8c0,28.2-21.4,60.6-60.6,60.6c-12,0-23.2-3.5-32.7-9.6
	c1.7,0.2,3.4,0.3,5.1,0.3c10,0,19.2-3.4,26.5-9.1c-9.3-0.2-17.2-6.3-19.9-14.8c1.3,0.2,2.6,0.4,4,0.4c1.9,0,3.8-0.3,5.6-0.7
	c-9.7-2-17.1-10.6-17.1-20.9c0-0.1,0-0.2,0-0.3c2.9,1.6,6.2,2.6,9.6,2.7c-5.7-3.8-9.5-10.3-9.5-17.7c0-3.9,1.1-7.6,2.9-10.7
	C40.8,49.6,56.5,58.1,74.2,59c-0.4-1.6-0.6-3.2-0.6-4.9c0-11.8,9.5-21.3,21.3-21.3c6.1,0,11.7,2.6,15.6,6.7c4.9-1,9.4-2.7,13.5-5.2
	c-1.6,5-5,9.1-9.4,11.8c4.3-0.5,8.4-1.7,12.2-3.4C124.1,47.1,120.5,50.8,116.3,53.8z"/>
</svg>
