<?xml version="1.0" encoding="utf-8"?>
<!-- Generator: Adobe Illustrator 21.1.0, SVG Export Plug-In . SVG Version: 6.00 Build 0)  -->
<svg version="1.1" id="Layer_1" xmlns="http://www.w3.org/2000/svg" xmlns:xlink="http://www.w3.org/1999/xlink" x="0px" y="0px"
	 viewBox="0 0 50 50" style="enable-background:new 0 0 50 50;" xml:space="preserve">
<style type="text/css">
	.st0{fill:#818181;}
</style>
<g>
	<path class="st0" d="M46.7,47c-14.5,0-29,0-43.6,0c-0.7-3.3-0.5-6.3,2.2-8.8c0.1-0.1,0.1-0.1,0.2-0.2C15,28,34.8,28,44.3,38
		C46.9,40.6,47.6,43.4,46.7,47z"/>
	<path class="st0" d="M35.9,14.1c0,6.1-4.9,10.9-11,10.9c-6.2,0-11-5-10.9-11.2C14.1,7.8,19.1,2.9,25.1,3C31.1,3.1,35.9,8,35.9,14.1
		z"/>
</g>
</svg>
