<?xml version="1.0" encoding="utf-8"?>
<!-- Generator: Adobe Illustrator 21.1.0, SVG Export Plug-In . SVG Version: 6.00 Build 0)  -->
<svg version="1.1" id="Layer_1" xmlns="http://www.w3.org/2000/svg" xmlns:xlink="http://www.w3.org/1999/xlink" x="0px" y="0px"
	 viewBox="0 0 372 313.3" style="enable-background:new 0 0 372 313.3;" xml:space="preserve">
<style type="text/css">
	.st0{fill:#D7A029;}
	.st1{fill:#F1C319;}
</style>
<path id="XMLID_69_" class="st0" d="M238.4,111.7c-0.9-15.1-5.9-29.9-13.5-43.3c-9.4-16.6-22.8-31-37.8-43.7
	c-0.4-0.4-11.4,10.1-12.4,11.1c-16.4,16.3-29.4,35.5-35.6,57.1c-4,13.8-4.9,28.3-1.9,42.3c1.4,6.7,3.6,13.2,6.6,19.4
	c5.3,11.1,13,21.2,22.5,29.6C153,163.1,146.2,138,150.6,114c4.3-23.8,19-45,36.2-63.4C206.2,67.2,219.2,90,223,114
	c3.8,24-1.6,49.2-15.1,70.1c17.2-16.9,28.9-38.8,30.5-61.9C238.7,118.7,238.7,115.2,238.4,111.7z"/>
<path id="XMLID_5_" class="st1" d="M238.4,104.8c-0.9-16.5-5.9-32.7-13.5-47.4c-9.4-18.1-22.8-34-37.8-47.9
	c-0.4-0.4-11.4,11.1-12.4,12.1c-16.4,17.8-29.4,38.8-35.6,62.5c-4,15.1-4.9,30.9-1.9,46.3c1.4,7.3,3.6,14.4,6.6,21.2
	c5.3,12.1,13,23.2,22.5,32.4c-13.3-23.1-20.1-50.5-15.8-76.8c4.3-26.1,19-49.3,36.2-69.4c19.4,18.1,32.4,43,36.3,69.3
	c3.8,26.3-1.6,53.9-15.1,76.8c17.2-18.5,28.9-42.5,30.5-67.7C238.7,112.5,238.7,108.7,238.4,104.8z"/>
<path id="XMLID_68_" class="st0" d="M303.3,83.1c-0.3-10.4-1.7-20.6-3.4-31c-15.7,2.1-30.9,4.7-45.7,10.6
	c-15.6,6.3-30.2,15.4-41.7,27.7c-12.1,12.9-20,28.5-23.9,45.7c-1.9,8.2-2.8,16.7-2.5,25.2c0.1,1.7,0.2,3.5,0.4,5.2
	c0.1,1.5,0.4,5.1,0.4,5.1s3.4-17.3,6.3-25.8c5.6-16.3,14.6-31.1,27.2-42.8c12.2-11.3,27.3-19.3,43-24.5c6.6-2.2,13.4-3.9,20.2-5.2
	c0.2,0,0.4-0.1,0.6-0.1c0,0.2,0.1,0.4,0.1,0.7c1.8,18.4,0.7,37.7-4.7,55.5c-4.7,15.7-13.5,30.3-25.3,41.7c-4,3.9-8.3,7.4-12.8,10.6
	c-3.8,2.7-20.9,13.3-20.9,13.3s6.3-1.6,8-2.1c7.9-2.4,15.5-4.9,22.8-8.8c14-7.5,26.2-18.8,34.7-32.3c9.8-15.6,15.1-33.6,16.8-51.8
	C303.4,94.2,303.5,88.6,303.3,83.1z"/>
<path id="XMLID_71_" class="st0" d="M70.5,82.9c0.3-10.4,1.7-20.6,3.4-31c15.7,2.1,30.9,4.7,45.7,10.6c15.6,6.3,30.2,15.4,41.7,27.7
	c12.1,12.9,20,28.5,23.9,45.7c1.9,8.2,2.7,16.8,2.3,25.2c-0.1,1.7-0.3,3.4-0.4,5.2c-0.1,1.5-0.3,5.2-0.3,5.2s-3.3-17.4-6.3-25.9
	c-5.6-16.3-14.6-31.1-27.2-42.8c-12.2-11.3-27.3-19.3-43-24.5c-6.6-2.2-13.4-3.9-20.2-5.2c-0.2,0-0.4-0.1-0.6-0.1
	c0,0.2-0.1,0.4-0.1,0.7c-1.8,18.4-0.7,37.7,4.7,55.5c4.7,15.7,13.5,30.3,25.3,41.7c4,3.9,8.3,7.4,12.8,10.6
	c3.8,2.7,20.8,13.3,20.8,13.3s-23.4-7-30.7-11c-14-7.5-26.2-18.8-34.7-32.3C78,135.9,72.6,117.9,71,99.6
	C70.4,94,70.3,88.5,70.5,82.9z"/>
<path id="XMLID_73_" class="st1" d="M311.5,75.3c-0.3-11.1-1.8-22.1-3.6-33.2c-16.8,2.2-33.1,5-48.9,11.3
	c-16.7,6.7-32.3,16.5-44.7,29.6c-13,13.8-21.4,30.5-25.6,48.9c-0.7,3.2-1.3,6.5-1.8,9.7c-0.5-3.3-1.1-6.6-1.8-9.8
	c-4.2-18.4-12.6-35.1-25.6-48.9c-12.4-13.2-27.9-22.9-44.7-29.6C99,47,82.8,44.3,66,42c-1.8,11.1-3.3,22.1-3.6,33.2
	c-0.2,5.9-0.1,11.9,0.5,17.9c1.8,19.5,7.5,38.8,18,55.4c9.1,14.4,22.1,26.5,37.1,34.6c7.8,4.2,16,6.9,24.4,9.4
	c1.8,0.5,3.7,0.8,5.6,1.2c1.9,0.4,3.7,0.7,5.6,1c-1.8-0.3-4.2-2-5.8-2.9c-2.2-1.1-4.4-2.2-6.6-3.4c-4.3-2.4-8.5-5.1-12.6-7.9
	c-4.9-3.4-9.5-7.2-13.7-11.3c-12.6-12.2-22-27.8-27-44.6c-5.7-19.1-7-39.7-5-59.4c0-0.2,0.1-0.5,0.1-0.7c0.2,0,0.4,0.1,0.7,0.1
	c7.3,1.4,14.6,3.2,21.6,5.6c16.8,5.6,32.9,14.1,46,26.2c13.5,12.6,23.1,28.4,29.1,45.8c3,8.6,6.7,27.6,6.7,27.6s3.6-18.5,6.8-27.6
	c6-17.4,15.6-33.3,29.1-45.8c13.1-12.1,29.2-20.6,46-26.2c7.1-2.4,14.3-4.2,21.6-5.6c0.2,0,0.4-0.1,0.7-0.1c0,0.2,0.1,0.5,0.1,0.7
	c2,19.7,0.7,40.4-5,59.4c-5.1,16.8-14.4,32.4-27,44.6c-4.3,4.1-8.9,7.9-13.7,11.3c-4.1,2.9-8.2,5.5-12.6,7.9
	c-2.2,1.2-4.4,2.4-6.6,3.4c-1.7,0.8-4,2.5-5.8,2.9c1.9-0.3,3.7-0.7,5.6-1c1.8-0.4,3.8-0.7,5.6-1.2c8.5-2.5,16.6-5.2,24.4-9.4
	c15-8.1,28-20.1,37.1-34.6c10.5-16.7,16.2-35.9,18-55.4C311.6,87.1,311.7,81.2,311.5,75.3z"/>
<path id="XMLID_8_" class="st0" d="M332.3,174.6c1.9-2.5,3.7-5.1,5.4-7.7c4-6,7.4-12.4,10.9-18.7c0,0-7.8-4.6-7.9-4.7
	c-26.4-15.7-57.4-24-87.9-18.2c-14.4,2.7-28.1,8.6-39.7,17.4c-2.6,2-5.2,4.1-7.6,6.4c-3.7,3.4-7.1,7.1-10.3,11c-1.6,2-3.1,4-4.5,6
	c-1.1,1.6-3.7,5.6-3.7,5.6s20.7-17.4,33.4-23.3c29-13.6,62.2-11.9,91.2,0.7c3.8,1.7,7.5,3.5,11.2,5.4c0.2,0.1,0.4,0.2,0.6,0.3
	c-0.1,0.2-0.2,0.4-0.3,0.6c-15.7,24.6-39,47-68.1,54.4c-5.5,1.4-11.1,2.3-16.7,2.9c-6.8,0.7-13.6,0.7-20.4,0
	c-6.8-0.7-20.4-3.6-20.4-3.6s27.9,11.2,41.8,12.3c14.5,1.1,29.3-0.9,42.8-6.3c4.8-1.9,9.4-4.2,13.7-6.8
	C310.1,199.8,322.3,187.9,332.3,174.6z"/>
<path id="XMLID_2_" class="st1" d="M344.8,173.4c2-2.7,4-5.5,5.8-8.3c4.3-6.5,8-13.3,11.8-20.1c0,0-8.4-5-8.5-5
	c-28.4-16.9-61.9-25.9-94.8-19.7c-15.5,2.9-30.3,9.2-42.9,18.8c-2.8,2.2-5.6,4.5-8.2,6.9c-4,3.7-7.7,7.7-11.1,11.9
	c-1.7,2.1-3.3,4.3-4.8,6.5c-1.2,1.8-4,6-4,6s22.4-18.7,36-25.1c31.3-14.6,67.1-12.9,98.3,0.8c4.1,1.8,8.1,3.8,12.1,5.8
	c0.2,0.1,0.4,0.2,0.6,0.3c-0.1,0.2-0.2,0.4-0.4,0.6c-17,26.5-42,50.7-73.4,58.6c-5.9,1.5-11.9,2.5-18,3.1c-7.3,0.7-14.7,0.8-22,0
	c-7.3-0.7-24-5.4-24-5.4s32,13.7,47.1,14.8c15.7,1.2,31.5-1,46.2-6.8c5.1-2,10.1-4.5,14.8-7.4C320.9,200.6,334,187.8,344.8,173.4z"
	/>
<path id="XMLID_67_" class="st0" d="M41.6,174.6c-1.9-2.5-3.7-5.1-5.4-7.7c-4-6-7.4-12.4-10.9-18.7c0,0,7.8-4.6,7.9-4.7
	c26.4-15.7,57.4-24,87.9-18.2c14.4,2.7,28.1,8.6,39.7,17.4c2.6,2,5.2,4.1,7.6,6.4c3.7,3.4,7.1,7.1,10.3,11c1.6,2,3.1,4,4.5,6
	c1.1,1.6,3.7,5.6,3.7,5.6s-20.7-17.4-33.4-23.3c-29-13.6-62.2-11.9-91.2,0.7c-3.8,1.7-7.5,3.5-11.2,5.4c-0.2,0.1-0.4,0.2-0.6,0.3
	c0.1,0.2,0.2,0.4,0.3,0.6c15.7,24.6,39,47,68.1,54.4c5.5,1.4,11.1,2.3,16.7,2.9c6.8,0.7,13.6,0.7,20.4,0c6.8-0.7,20.4-3.6,20.4-3.6
	s-27.9,11.2-41.8,12.3c-14.5,1.1-29.3-0.9-42.8-6.3c-4.8-1.9-9.4-4.2-13.7-6.8C63.7,199.8,51.5,187.9,41.6,174.6z"/>
<path id="XMLID_66_" class="st1" d="M29.1,173.4c-2-2.7-4-5.5-5.8-8.3c-4.3-6.5-8-13.3-11.8-20.1c0,0,8.4-5,8.5-5
	c28.4-16.9,61.9-25.9,94.8-19.7c15.5,2.9,30.3,9.2,42.9,18.8c2.8,2.2,5.6,4.5,8.2,6.9c4,3.7,7.7,7.7,11.1,11.9
	c1.7,2.1,3.3,4.3,4.8,6.5c1.2,1.8,4,6,4,6s-22.4-18.7-36-25.1c-31.3-14.6-67.1-12.9-98.3,0.8c-4.1,1.8-8.1,3.8-12.1,5.8
	c-0.2,0.1-0.4,0.2-0.6,0.3c0.1,0.2,0.2,0.4,0.4,0.6c17,26.5,42,50.7,73.4,58.6c5.9,1.5,11.9,2.5,18,3.1c7.3,0.7,14.7,0.8,22,0
	c7.3-0.7,24-5.4,24-5.4s-32,13.7-47.1,14.8c-15.7,1.2-31.5-1-46.2-6.8c-5.1-2-10.1-4.5-14.8-7.4C52.9,200.6,39.8,187.8,29.1,173.4z"
	/>
<g id="XMLID_39_">
	<path id="XMLID_40_" class="st1" d="M44.5,269.9c0,0.9,0,1.6,0.1,2.1c0.1,0.5,0.3,1,0.5,1.2s0.6,0.5,1.1,0.6
		c0.5,0.1,1.1,0.2,1.9,0.2v1.3H37.2V274c0.8,0,1.4-0.1,1.9-0.2c0.5-0.1,0.9-0.3,1.1-0.6s0.4-0.7,0.5-1.2c0.1-0.5,0.1-1.2,0.1-1.9
		v-15.7c0-0.9-0.1-1.5-0.2-2s-0.3-0.9-0.5-1.2s-0.6-0.4-1-0.5c-0.4-0.1-1-0.1-1.7-0.1v-1.3h10.2v1.3c-0.7,0-1.2,0-1.7,0.1
		c-0.4,0.1-0.8,0.3-1,0.6c-0.3,0.3-0.4,0.7-0.5,1.2c-0.1,0.5-0.1,1.2-0.1,2.1v8.3l8.4-10.1c0.4-0.6,0.7-1,0.7-1.3
		c0-0.6-0.6-0.9-1.9-0.9v-1.3h8.1v1.2c-0.4,0-0.8,0-1.2,0.1c-0.3,0.1-0.7,0.2-1,0.4c-0.3,0.2-0.7,0.4-1,0.8
		c-0.4,0.3-0.8,0.8-1.2,1.3l-6.3,7.3l9.8,11.8c0.6,0.7,1.1,1.1,1.6,1.4c0.5,0.3,1.2,0.4,2,0.4v1.3H52V274c0.9,0,1.5-0.1,1.9-0.2
		s0.6-0.4,0.6-0.7c0-0.2-0.1-0.4-0.3-0.8c-0.2-0.3-0.5-0.8-0.9-1.2l-6.6-8.1l-2.3,2.7V269.9z"/>
	<path id="XMLID_42_" class="st1" d="M87.2,265.8h-9c-0.4,0.9-0.7,1.7-1,2.4c-0.3,0.7-0.5,1.3-0.7,1.8s-0.3,1-0.4,1.3
		s-0.1,0.7-0.1,0.9c0,0.6,0.2,1.1,0.6,1.3c0.4,0.2,1.1,0.4,2,0.4v1.3h-8.2V274c0.5-0.1,1-0.2,1.3-0.3c0.4-0.1,0.7-0.3,1-0.5
		c0.3-0.2,0.5-0.5,0.7-0.8c0.2-0.3,0.4-0.7,0.6-1.2l8.8-21.9h1.4l7.7,19c0.5,1.3,1,2.3,1.3,3c0.4,0.8,0.8,1.3,1.1,1.7
		c0.4,0.4,0.7,0.6,1.2,0.7c0.4,0.1,0.9,0.2,1.5,0.2v1.3h-11v-1.3c1.2,0,2-0.1,2.5-0.3c0.4-0.2,0.7-0.6,0.7-1.1c0-0.2,0-0.4,0-0.6
		c0-0.2-0.1-0.4-0.1-0.6s-0.1-0.5-0.2-0.8c-0.1-0.3-0.2-0.6-0.4-1L87.2,265.8z M78.9,264.2h7.7l-3.7-9.9L78.9,264.2z"/>
	<path id="XMLID_45_" class="st1" d="M124.1,269.2l8.8-19.9h7.6v1.3c-0.7,0-1.3,0.1-1.7,0.3c-0.4,0.2-0.8,0.4-1,0.8
		c-0.2,0.4-0.4,0.9-0.5,1.5c-0.1,0.7-0.1,1.5-0.1,2.5v13.2c0,1.1,0,2,0.1,2.7c0.1,0.7,0.3,1.2,0.5,1.5c0.3,0.4,0.6,0.6,1.1,0.7
		c0.5,0.1,1.1,0.2,1.9,0.2v1.3h-10.9V274c0.8,0,1.4-0.1,1.9-0.2c0.5-0.1,0.9-0.4,1.1-0.7s0.4-0.8,0.5-1.4c0.1-0.6,0.1-1.5,0.1-2.5
		v-15.6h-0.3l-9.8,22.1h-0.7l-9.7-22.1h-0.1v15.4c0,1.1,0,2,0.1,2.7c0.1,0.7,0.3,1.2,0.5,1.5c0.3,0.4,0.6,0.6,1.1,0.7
		c0.5,0.1,1.1,0.2,1.9,0.2v1.3H107V274c0.8,0,1.4-0.1,1.9-0.2c0.5-0.1,0.9-0.4,1.1-0.7s0.4-0.8,0.5-1.4c0.1-0.6,0.1-1.5,0.1-2.5
		v-13.7c0-0.9,0-1.7-0.1-2.3c-0.1-0.6-0.2-1.1-0.5-1.5c-0.2-0.4-0.6-0.6-1-0.8c-0.5-0.1-1-0.2-1.8-0.3v-1.3h8.1l8.5,19.9H124.1z"/>
	<path id="XMLID_47_" class="st1" d="M167.5,265.8h-9c-0.4,0.9-0.7,1.7-1,2.4s-0.5,1.3-0.7,1.8s-0.3,1-0.4,1.3
		c-0.1,0.4-0.1,0.7-0.1,0.9c0,0.6,0.2,1.1,0.6,1.3c0.4,0.2,1.1,0.4,2,0.4v1.3h-8.2V274c0.5-0.1,1-0.2,1.3-0.3c0.4-0.1,0.7-0.3,1-0.5
		c0.3-0.2,0.5-0.5,0.7-0.8c0.2-0.3,0.4-0.7,0.6-1.2l8.8-21.9h1.5l7.7,19c0.5,1.3,1,2.3,1.3,3c0.4,0.8,0.8,1.3,1.1,1.7
		s0.7,0.6,1.2,0.7s0.9,0.2,1.5,0.2v1.3h-11v-1.3c1.2,0,2-0.1,2.5-0.3c0.4-0.2,0.7-0.6,0.7-1.1c0-0.2,0-0.4,0-0.6
		c0-0.2-0.1-0.4-0.1-0.6c-0.1-0.2-0.1-0.5-0.2-0.8c-0.1-0.3-0.2-0.6-0.4-1L167.5,265.8z M159.2,264.2h7.7l-3.7-9.9L159.2,264.2z"/>
	<path id="XMLID_50_" class="st1" d="M209.1,275.3h-21.8V274c0.8,0,1.4-0.1,1.9-0.2s0.9-0.3,1.1-0.6c0.3-0.3,0.5-0.7,0.5-1.1
		c0.1-0.5,0.1-1.1,0.1-1.9v-15.7c0-0.8,0-1.4-0.1-1.9c-0.1-0.5-0.2-0.9-0.5-1.1c-0.2-0.3-0.6-0.5-1-0.6c-0.5-0.1-1-0.2-1.8-0.2v-1.3
		h10.2v1.3c-0.7,0-1.3,0.1-1.7,0.2c-0.4,0.1-0.8,0.3-1,0.6c-0.2,0.3-0.4,0.7-0.5,1.2c-0.1,0.5-0.1,1.2-0.1,2.1v14.5
		c0,0.9,0.1,1.7,0.3,2.3c0.2,0.6,0.5,1.1,1,1.4c0.5,0.3,1.1,0.6,1.8,0.7c0.8,0.1,1.7,0.2,2.9,0.2c1.3,0,2.4-0.1,3.2-0.2
		c0.9-0.1,1.6-0.4,2.2-0.8c0.6-0.4,1.1-0.9,1.4-1.6c0.3-0.7,0.6-1.5,0.9-2.6h1.3L209.1,275.3z"/>
	<path id="XMLID_52_" class="st1" d="M235.5,265.8h-9c-0.4,0.9-0.7,1.7-1,2.4s-0.5,1.3-0.7,1.8s-0.3,1-0.4,1.3
		c-0.1,0.4-0.1,0.7-0.1,0.9c0,0.6,0.2,1.1,0.6,1.3c0.4,0.2,1.1,0.4,2,0.4v1.3h-8.2V274c0.5-0.1,1-0.2,1.3-0.3c0.4-0.1,0.7-0.3,1-0.5
		c0.3-0.2,0.5-0.5,0.7-0.8c0.2-0.3,0.4-0.7,0.6-1.2l8.8-21.9h1.5l7.7,19c0.5,1.3,1,2.3,1.3,3c0.4,0.8,0.8,1.3,1.1,1.7
		s0.7,0.6,1.2,0.7s0.9,0.2,1.5,0.2v1.3h-11v-1.3c1.2,0,2-0.1,2.5-0.3c0.4-0.2,0.7-0.6,0.7-1.1c0-0.2,0-0.4,0-0.6
		c0-0.2-0.1-0.4-0.1-0.6c-0.1-0.2-0.1-0.5-0.2-0.8c-0.1-0.3-0.2-0.6-0.4-1L235.5,265.8z M227.2,264.2h7.7l-3.7-9.9L227.2,264.2z"/>
	<path id="XMLID_55_" class="st1" d="M255.8,267.3h1.2c0.2,1,0.5,1.9,0.9,2.7c0.4,0.8,1,1.5,1.7,2.1c0.7,0.6,1.4,1,2.3,1.3
		c0.9,0.3,1.8,0.5,2.8,0.5c1.7,0,3-0.4,3.9-1.2c1-0.8,1.4-1.9,1.4-3.2c0-0.6-0.1-1.1-0.3-1.6c-0.2-0.5-0.5-0.9-1-1.4
		c-0.4-0.4-1.1-0.9-1.8-1.3s-1.7-0.9-2.8-1.4c-1.4-0.6-2.6-1.2-3.5-1.8c-0.9-0.6-1.7-1.1-2.3-1.8c-0.6-0.6-1-1.3-1.2-1.9
		c-0.2-0.7-0.4-1.5-0.4-2.3c0-1,0.2-2,0.6-2.9c0.4-0.9,0.9-1.6,1.6-2.3c0.7-0.6,1.5-1.1,2.4-1.5c0.9-0.3,1.9-0.5,3-0.5
		c1,0,1.9,0.2,2.8,0.5c0.9,0.3,1.7,0.8,2.6,1.5l0.9-1.5h0.8l0.4,6.7h-1.2c-0.5-1.8-1.3-3.2-2.3-4.1c-1-0.9-2.3-1.3-3.7-1.3
		c-1.4,0-2.5,0.3-3.3,1c-0.8,0.7-1.2,1.6-1.2,2.7c0,0.5,0.1,1,0.3,1.5c0.2,0.4,0.5,0.9,0.9,1.2c0.4,0.4,0.9,0.8,1.6,1.2
		c0.7,0.4,1.5,0.8,2.4,1.2c1.7,0.7,3,1.4,4.1,2.1c1.1,0.6,2,1.3,2.6,1.9c0.7,0.6,1.1,1.3,1.4,2s0.4,1.5,0.4,2.4
		c0,1.1-0.2,2.2-0.7,3.1c-0.5,0.9-1.1,1.8-1.9,2.4c-0.8,0.7-1.8,1.2-2.9,1.6c-1.1,0.4-2.4,0.6-3.7,0.6c-1.3,0-2.4-0.2-3.5-0.5
		c-1-0.4-2.1-1-3.1-1.8l-0.9,1.7h-0.8L255.8,267.3z"/>
	<path id="XMLID_57_" class="st1" d="M310.4,269.9c0,0.9,0,1.5,0.1,2.1c0.1,0.5,0.3,0.9,0.5,1.2c0.3,0.3,0.6,0.5,1.1,0.6
		s1.1,0.2,1.9,0.2v1.3h-10.9V274c0.8,0,1.4-0.1,1.9-0.2s0.9-0.3,1.1-0.6c0.3-0.3,0.5-0.7,0.5-1.1c0.1-0.5,0.1-1.1,0.1-1.9v-7.3
		h-13.7v7.1c0,0.9,0,1.5,0.1,2.1c0.1,0.5,0.3,0.9,0.5,1.2c0.3,0.3,0.6,0.5,1.1,0.6s1.1,0.2,1.9,0.2v1.3h-10.9V274
		c0.8,0,1.4-0.1,1.9-0.2s0.9-0.3,1.1-0.6c0.3-0.3,0.5-0.7,0.5-1.1c0.1-0.5,0.1-1.1,0.1-1.9v-15.7c0-0.8,0-1.4-0.1-1.9
		c-0.1-0.5-0.2-0.9-0.5-1.1c-0.2-0.3-0.6-0.5-1-0.6c-0.5-0.1-1-0.2-1.8-0.2v-1.3h10.2v1.3c-0.7,0-1.3,0.1-1.7,0.2
		c-0.4,0.1-0.8,0.3-1,0.6c-0.2,0.3-0.4,0.7-0.5,1.2c-0.1,0.5-0.1,1.2-0.1,2.1v6.5h13.7v-6.7c0-0.8,0-1.4-0.1-1.9
		c-0.1-0.5-0.2-0.9-0.5-1.1c-0.2-0.3-0.6-0.5-1-0.6c-0.5-0.1-1-0.2-1.8-0.2v-1.3h10.2v1.3c-0.7,0-1.3,0.1-1.7,0.2
		c-0.4,0.1-0.8,0.3-1,0.6c-0.2,0.3-0.4,0.7-0.5,1.2c-0.1,0.5-0.1,1.2-0.1,2.1V269.9z"/>
	<path id="XMLID_59_" class="st1" d="M333.1,268.9c0,1.1,0,2,0.1,2.7c0.1,0.7,0.3,1.2,0.5,1.5c0.3,0.4,0.6,0.6,1.1,0.7
		s1.1,0.2,1.9,0.2v1.3h-10.9V274c0.8,0,1.4-0.1,1.9-0.2c0.5-0.1,0.9-0.4,1.1-0.7c0.3-0.3,0.5-0.8,0.5-1.4c0.1-0.6,0.1-1.5,0.1-2.5
		v-13.7c0-0.9,0-1.7-0.1-2.3c-0.1-0.6-0.2-1.1-0.5-1.5c-0.2-0.4-0.6-0.6-1-0.8c-0.5-0.1-1-0.2-1.8-0.3v-1.3h10.2v1.3
		c-0.7,0-1.3,0.1-1.7,0.3c-0.4,0.2-0.8,0.4-1,0.8c-0.2,0.4-0.4,0.9-0.5,1.5c-0.1,0.7-0.1,1.5-0.1,2.5V268.9z"/>
</g>
<g id="XMLID_11_">
	<path id="XMLID_18_" class="st1" d="M86.1,290.5c0,0.7-0.1,1.3-0.3,1.9c-0.2,0.6-0.6,1-1.1,1.4c-0.5,0.4-1.1,0.7-1.9,0.9
		c-0.8,0.2-1.7,0.3-2.9,0.3h-1.8v3.9c0,0.5,0,0.9,0.1,1.2s0.2,0.6,0.4,0.7c0.2,0.2,0.5,0.3,0.8,0.4c0.4,0.1,0.9,0.1,1.5,0.1v0.8
		h-7.1v-0.8c0.5,0,0.8-0.1,1.1-0.1s0.5-0.2,0.7-0.3c0.2-0.2,0.3-0.4,0.3-0.7c0.1-0.3,0.1-0.7,0.1-1.1v-9.3c0-0.5,0-0.8-0.1-1.1
		c0-0.3-0.1-0.5-0.3-0.7s-0.3-0.3-0.6-0.3c-0.3-0.1-0.6-0.1-1-0.1v-0.8h6.3c1.8,0,3.3,0.3,4.3,1S86.1,289.2,86.1,290.5z M78.1,294
		h1.4c1.3,0,2.3-0.3,3-0.8c0.6-0.5,1-1.4,1-2.5c0-1.1-0.3-1.9-0.8-2.4c-0.5-0.5-1.3-0.7-2.4-0.7h-1.8c-0.2,0-0.3,0.1-0.3,0.3V294z"
		/>
	<path id="XMLID_27_" class="st1" d="M123.3,296.4h-5.3c-0.2,0.5-0.4,1-0.6,1.5c-0.2,0.4-0.3,0.8-0.4,1.1c-0.1,0.3-0.2,0.6-0.2,0.8
		c0,0.2-0.1,0.4-0.1,0.5c0,0.4,0.1,0.6,0.4,0.8c0.2,0.1,0.6,0.2,1.2,0.2v0.8h-4.9v-0.8c0.3,0,0.6-0.1,0.8-0.2
		c0.2-0.1,0.4-0.2,0.6-0.3c0.2-0.1,0.3-0.3,0.4-0.5c0.1-0.2,0.3-0.4,0.4-0.7l5.2-13h0.9l4.5,11.3c0.3,0.7,0.6,1.3,0.8,1.8
		c0.2,0.4,0.4,0.8,0.7,1c0.2,0.2,0.4,0.4,0.7,0.4c0.2,0.1,0.5,0.1,0.9,0.1v0.8h-6.5v-0.8c0.7,0,1.2-0.1,1.5-0.2
		c0.3-0.1,0.4-0.4,0.4-0.7c0-0.1,0-0.3,0-0.4c0-0.1,0-0.2-0.1-0.4c0-0.1-0.1-0.3-0.1-0.5c-0.1-0.2-0.1-0.4-0.2-0.6L123.3,296.4z
		 M118.3,295.4h4.6l-2.2-5.9L118.3,295.4z"/>
	<path id="XMLID_30_" class="st1" d="M170.8,302h-12.9v-0.8c0.5,0,0.8-0.1,1.1-0.1s0.5-0.2,0.7-0.3c0.2-0.2,0.3-0.4,0.3-0.7
		c0.1-0.3,0.1-0.7,0.1-1.1v-9.3c0-0.5,0-0.8-0.1-1.1c0-0.3-0.1-0.5-0.3-0.7s-0.3-0.3-0.6-0.3c-0.3-0.1-0.6-0.1-1-0.1v-0.8h6.1v0.8
		c-0.4,0-0.8,0.1-1,0.1c-0.3,0.1-0.5,0.2-0.6,0.4c-0.1,0.2-0.2,0.4-0.3,0.7c0,0.3-0.1,0.7-0.1,1.2v8.6c0,0.6,0.1,1,0.2,1.4
		c0.1,0.4,0.3,0.6,0.6,0.8c0.3,0.2,0.6,0.3,1.1,0.4c0.5,0.1,1,0.1,1.7,0.1c0.8,0,1.4,0,1.9-0.1c0.5-0.1,1-0.2,1.3-0.5
		c0.4-0.2,0.6-0.5,0.8-0.9c0.2-0.4,0.4-0.9,0.5-1.5h0.8L170.8,302z"/>
	<path id="XMLID_32_" class="st1" d="M209.2,296.4h-5.3c-0.2,0.5-0.4,1-0.6,1.5s-0.3,0.8-0.4,1.1s-0.2,0.6-0.2,0.8
		c0,0.2-0.1,0.4-0.1,0.5c0,0.4,0.1,0.6,0.4,0.8c0.2,0.1,0.6,0.2,1.2,0.2v0.8h-4.9v-0.8c0.3,0,0.6-0.1,0.8-0.2
		c0.2-0.1,0.4-0.2,0.6-0.3c0.2-0.1,0.3-0.3,0.4-0.5s0.3-0.4,0.4-0.7l5.2-13h0.9l4.5,11.3c0.3,0.7,0.6,1.3,0.8,1.8
		c0.2,0.4,0.4,0.8,0.7,1c0.2,0.2,0.4,0.4,0.7,0.4c0.2,0.1,0.5,0.1,0.9,0.1v0.8h-6.5v-0.8c0.7,0,1.2-0.1,1.5-0.2
		c0.3-0.1,0.4-0.4,0.4-0.7c0-0.1,0-0.3,0-0.4s0-0.2-0.1-0.4c0-0.1-0.1-0.3-0.1-0.5c-0.1-0.2-0.1-0.4-0.2-0.6L209.2,296.4z
		 M204.3,295.4h4.6l-2.2-5.9L204.3,295.4z"/>
	<path id="XMLID_35_" class="st1" d="M256.3,286.6h0.6l0.2,4.6h-0.7c-0.3-1.2-0.9-2.1-1.7-2.8c-0.8-0.7-1.9-1-3-1
		c-0.8,0-1.5,0.2-2.2,0.5c-0.6,0.3-1.2,0.8-1.6,1.4c-0.4,0.6-0.8,1.3-1,2.2c-0.2,0.9-0.3,1.8-0.3,2.9c0,2.1,0.4,3.8,1.3,4.9
		c0.9,1.2,2.2,1.7,3.9,1.7c2.6,0,4.2-1.4,5-4.1h0.8v5h-0.7l-0.5-1.6c-1.4,1.2-3.1,1.8-5.1,1.8c-1.1,0-2.2-0.2-3.1-0.5
		c-0.9-0.4-1.7-0.9-2.3-1.5s-1.1-1.5-1.5-2.4c-0.4-0.9-0.5-2-0.5-3.2c0-1.2,0.2-2.3,0.6-3.3s0.9-1.9,1.6-2.6s1.5-1.3,2.4-1.7
		c0.9-0.4,2-0.6,3.1-0.6c0.8,0,1.6,0.1,2.3,0.3c0.7,0.2,1.5,0.6,2.3,1.1L256.3,286.6z"/>
	<path id="XMLID_37_" class="st1" d="M291.8,293.5c0.7,0,1.3,0,1.8-0.1s0.9-0.2,1.2-0.4s0.5-0.4,0.6-0.7s0.2-0.6,0.2-1h0.7v5.5h-0.7
		c0-0.4-0.1-0.7-0.2-1s-0.3-0.5-0.6-0.7c-0.3-0.2-0.7-0.3-1.2-0.4c-0.5-0.1-1.1-0.2-1.8-0.2v4.5c0,0.4,0.1,0.8,0.2,1.1
		s0.3,0.5,0.6,0.7c0.3,0.2,0.6,0.3,1,0.4c0.4,0.1,1,0.1,1.6,0.1c0.7,0,1.3,0,1.8-0.1c0.5-0.1,0.9-0.3,1.2-0.5c0.3-0.2,0.6-0.6,0.8-1
		s0.4-0.9,0.5-1.5h0.8l-0.3,3.9h-12.4v-0.8c0.5,0,0.8-0.1,1.1-0.1s0.5-0.2,0.7-0.3s0.3-0.4,0.3-0.7c0.1-0.3,0.1-0.7,0.1-1.1v-9.3
		c0-0.5,0-0.8-0.1-1.1c0-0.3-0.1-0.5-0.3-0.7c-0.1-0.2-0.3-0.3-0.6-0.3c-0.3-0.1-0.6-0.1-1-0.1v-0.8h11.6l0.2,3.5h-0.7
		c-0.1-0.5-0.2-1-0.4-1.3c-0.2-0.3-0.4-0.6-0.7-0.8c-0.3-0.2-0.7-0.3-1.2-0.4c-0.5-0.1-1.1-0.1-1.7-0.1h-2.5c-0.2,0-0.3,0.1-0.3,0.3
		V293.5z"/>
</g>
</svg>
