<?xml version="1.0" encoding="utf-8"?>
<!-- Generator: Adobe Illustrator 21.1.0, SVG Export Plug-In . SVG Version: 6.00 Build 0)  -->
<svg version="1.1" id="Layer_1" xmlns="http://www.w3.org/2000/svg" xmlns:xlink="http://www.w3.org/1999/xlink" x="0px" y="0px"
	 viewBox="0 0 455.7 455.7" style="enable-background:new 0 0 455.7 455.7;" xml:space="preserve">
<style type="text/css">
	.st0{display:none;fill:#948959;}
	.st1{display:none;}
	.st2{display:inline;fill:#41479B;}
	.st3{display:inline;fill:#FF4B55;}
	.st4{display:inline;}
	.st5{fill:#F5F5F5;}
	.st6{fill:#F0F0F0;}
	.st7{fill:#D80027;}
</style>
<path class="st0" d="M227.9,182.6c-25,0-45.3,20.3-45.3,45.3s20.3,45.3,45.3,45.3s45.3-20.3,45.3-45.3
	C273.2,202.9,252.9,182.6,227.9,182.6z M227.9,182.6c-25,0-45.3,20.3-45.3,45.3s20.3,45.3,45.3,45.3s45.3-20.3,45.3-45.3
	C273.2,202.9,252.9,182.6,227.9,182.6z M303.4,108.7h-151c-24.1,0-43.7,19.6-43.7,43.7v151c0,24.1,19.6,43.7,43.7,43.7h151
	c24.1,0,43.7-19.6,43.7-43.7v-151C347.1,128.3,327.5,108.7,303.4,108.7z M227.9,306.4c-43.3,0-78.5-35.2-78.5-78.5
	s35.2-78.5,78.5-78.5s78.5,35.2,78.5,78.5C306.4,271.1,271.1,306.4,227.9,306.4z M308.9,165.6c-10.2,0-18.6-8.3-18.6-18.6
	s8.3-18.6,18.6-18.6s18.6,8.3,18.6,18.6S319.1,165.6,308.9,165.6z M227.9,182.6c-25,0-45.3,20.3-45.3,45.3s20.3,45.3,45.3,45.3
	s45.3-20.3,45.3-45.3C273.2,202.9,252.9,182.6,227.9,182.6z M303.4,108.7h-151c-24.1,0-43.7,19.6-43.7,43.7v151
	c0,24.1,19.6,43.7,43.7,43.7h151c24.1,0,43.7-19.6,43.7-43.7v-151C347.1,128.3,327.5,108.7,303.4,108.7z M227.9,306.4
	c-43.3,0-78.5-35.2-78.5-78.5s35.2-78.5,78.5-78.5s78.5,35.2,78.5,78.5C306.4,271.1,271.1,306.4,227.9,306.4z M308.9,165.6
	c-10.2,0-18.6-8.3-18.6-18.6s8.3-18.6,18.6-18.6s18.6,8.3,18.6,18.6S319.1,165.6,308.9,165.6z M227.9,182.6
	c-25,0-45.3,20.3-45.3,45.3s20.3,45.3,45.3,45.3s45.3-20.3,45.3-45.3C273.2,202.9,252.9,182.6,227.9,182.6z M0,0v455.7h455.7V0H0z
	 M380.2,303.4c0,42.4-34.5,76.9-76.9,76.9h-151c-42.4,0-76.9-34.5-76.9-76.9v-151c0-42.4,34.5-76.9,76.9-76.9h151
	c42.4,0,76.9,34.5,76.9,76.9V303.4L380.2,303.4z M303.4,108.7h-151c-24.1,0-43.7,19.6-43.7,43.7v151c0,24.1,19.6,43.7,43.7,43.7h151
	c24.1,0,43.7-19.6,43.7-43.7v-151C347.1,128.3,327.5,108.7,303.4,108.7z M227.9,306.4c-43.3,0-78.5-35.2-78.5-78.5
	s35.2-78.5,78.5-78.5s78.5,35.2,78.5,78.5C306.4,271.1,271.1,306.4,227.9,306.4z M308.9,165.6c-10.2,0-18.6-8.3-18.6-18.6
	s8.3-18.6,18.6-18.6s18.6,8.3,18.6,18.6S319.1,165.6,308.9,165.6z M227.9,182.6c-25,0-45.3,20.3-45.3,45.3s20.3,45.3,45.3,45.3
	s45.3-20.3,45.3-45.3C273.2,202.9,252.9,182.6,227.9,182.6z M227.9,182.6c-25,0-45.3,20.3-45.3,45.3s20.3,45.3,45.3,45.3
	s45.3-20.3,45.3-45.3C273.2,202.9,252.9,182.6,227.9,182.6z M227.9,182.6c-25,0-45.3,20.3-45.3,45.3s20.3,45.3,45.3,45.3
	s45.3-20.3,45.3-45.3C273.2,202.9,252.9,182.6,227.9,182.6z M303.4,108.7h-151c-24.1,0-43.7,19.6-43.7,43.7v151
	c0,24.1,19.6,43.7,43.7,43.7h151c24.1,0,43.7-19.6,43.7-43.7v-151C347.1,128.3,327.5,108.7,303.4,108.7z M227.9,306.4
	c-43.3,0-78.5-35.2-78.5-78.5s35.2-78.5,78.5-78.5s78.5,35.2,78.5,78.5C306.4,271.1,271.1,306.4,227.9,306.4z M308.9,165.6
	c-10.2,0-18.6-8.3-18.6-18.6s8.3-18.6,18.6-18.6s18.6,8.3,18.6,18.6S319.1,165.6,308.9,165.6z M227.9,182.6
	c-25,0-45.3,20.3-45.3,45.3s20.3,45.3,45.3,45.3s45.3-20.3,45.3-45.3C273.2,202.9,252.9,182.6,227.9,182.6z M227.9,182.6
	c-25,0-45.3,20.3-45.3,45.3s20.3,45.3,45.3,45.3s45.3-20.3,45.3-45.3C273.2,202.9,252.9,182.6,227.9,182.6z M227.9,182.6
	c-25,0-45.3,20.3-45.3,45.3s20.3,45.3,45.3,45.3s45.3-20.3,45.3-45.3C273.2,202.9,252.9,182.6,227.9,182.6z M303.4,108.7h-151
	c-24.1,0-43.7,19.6-43.7,43.7v151c0,24.1,19.6,43.7,43.7,43.7h151c24.1,0,43.7-19.6,43.7-43.7v-151
	C347.1,128.3,327.5,108.7,303.4,108.7z M227.9,306.4c-43.3,0-78.5-35.2-78.5-78.5s35.2-78.5,78.5-78.5s78.5,35.2,78.5,78.5
	C306.4,271.1,271.1,306.4,227.9,306.4z M308.9,165.6c-10.2,0-18.6-8.3-18.6-18.6s8.3-18.6,18.6-18.6s18.6,8.3,18.6,18.6
	S319.1,165.6,308.9,165.6z M227.9,182.6c-25,0-45.3,20.3-45.3,45.3s20.3,45.3,45.3,45.3s45.3-20.3,45.3-45.3
	C273.2,202.9,252.9,182.6,227.9,182.6z"/>
<g class="st1">
	<path class="st2" d="M18.5,30.6l279.1,181.2H121.8H82.6l26.2,25.9l203.3,201.4H18.5V30.6 M1,0v454.8h350.3L121.8,227.4h229.5L1,0z"
		/>
	<polyline class="st3" points="18.5,30.6 297.7,211.8 121.8,211.8 82.6,211.8 108.8,237.8 312.1,439.2 18.5,439.2 18.5,30.6 	"/>
	<g class="st4">
		<path class="st5" d="M103.8,282.2l10.8,19.8l20.4-12.4c0.9-0.5,2.1,0.1,2,1.1l-1.8,21.9l24.7-1.6c1.1-0.1,1.8,1,1.2,1.8
			l-13.9,18.2l22.3,9.6c1,0.4,1,1.7,0,2.1l-22.3,9.6l13.9,18.2c0.6,0.8-0.1,1.9-1.2,1.8l-24.7-1.6l1.8,21.9c0.1,1-1.1,1.6-2,1.1
			l-20.5-12.3l-10.8,19.8c-0.5,0.9-1.9,0.9-2.4,0l-10.8-19.8L70,393.6c-0.9,0.5-2.1-0.1-2-1.1l1.8-21.9l-24.5,1.5
			c-1.1,0.1-1.8-1-1.2-1.8L58,352.2l-22.3-9.6c-1-0.4-1-1.7,0-2.1l22.3-9.5l-13.9-18.2c-0.6-0.8,0.1-1.9,1.2-1.8l24.7,1.6l-1.8-21.9
			c-0.1-1,1.1-1.6,2-1.1l20.5,12.3l10.8-19.8C101.9,281.3,103.3,281.3,103.8,282.2z"/>
		<path class="st5" d="M131.8,167.8l-9.4-5.7l8.2-7.6l-11.7-1.9l4-9.9l-11.6,2.5l-0.9-10.6l-9.5,6.5l-5.7-9.3l-5.7,9.3l-9.5-6.5
			l-0.9,10.6l-11.6-2.5l4,9.9L60,154.5l8.2,7.6l-9.4,5.7c-11.8-4.9-22.2-12.1-30.4-20.9c5.5,28.4,33.3,50.1,66.9,50.1
			s61.4-21.7,66.9-50.1C154,155.8,143.6,162.9,131.8,167.8z"/>
	</g>
</g>
<rect x="0" y="88.7" class="st6" width="455.7" height="297"/>
<ellipse class="st7" cx="227.9" cy="237.2" rx="85.4" ry="83.5"/>
</svg>
